<svg width="179" height="178" viewBox="0 0 179 178" fill="none" xmlns="http://www.w3.org/2000/svg">
<path d="M92.9112 177.969C85.8222 177.951 78.7668 176.994 71.9288 175.125C60.6682 172.085 49.9105 166.772 39.9585 159.333C20.1636 144.542 6.26914 123.35 1.83766 101.194C-2.54234 79.2939 2.44777 56.8934 15.8883 38.1187C29.2881 19.4015 49.4942 6.52791 72.7834 1.86999C96.0727 -2.78794 119.675 1.32353 139.244 13.4478C158.872 25.6083 172.093 44.3666 176.473 66.267C180.905 88.4244 176.23 113.33 163.646 134.597C157.32 145.291 149.434 154.332 140.209 161.469C130.334 169.109 119.4 174.168 107.71 176.506C102.838 177.48 97.8804 177.97 92.9112 177.969Z" fill="#FFCC80"/>
</svg>
