<?xml version="1.0" standalone="no"?>
<!DOCTYPE svg PUBLIC "-//W3C//DTD SVG 20010904//EN"
 "http://www.w3.org/TR/2001/REC-SVG-20010904/DTD/svg10.dtd">
<svg version="1.0" xmlns="http://www.w3.org/2000/svg"
 width="1024.000000pt" height="1024.000000pt" viewBox="0 0 1024.000000 1024.000000"
 preserveAspectRatio="xMidYMid meet">

<g transform="translate(0.000000,1024.000000) scale(0.100000,-0.100000)"
fill="#000000" stroke="none">
<path d="M0 5120 l0 -5120 5120 0 5120 0 0 5120 0 5120 -5120 0 -5120 0 0
-5120z m4165 4321 c82 -38 200 -128 327 -249 96 -92 111 -102 135 -96 48 11
274 85 320 105 42 18 43 18 34 0 -18 -32 -80 -80 -152 -116 -62 -32 -265 -115
-280 -115 -3 0 -78 71 -165 158 -172 171 -266 246 -329 263 -63 17 -138 7
-184 -26 -49 -33 -52 -45 -12 -45 44 0 78 -16 98 -47 16 -24 18 -51 18 -218 0
-175 2 -193 21 -230 12 -22 32 -49 43 -59 21 -19 23 -19 50 -3 38 22 38 22 33
-17 -5 -42 12 -98 37 -120 17 -15 26 -11 151 70 74 47 152 100 173 117 l40 31
-61 -90 c-38 -55 -109 -136 -189 -215 -139 -136 -219 -242 -267 -353 -26 -61
-31 -83 -31 -156 0 -73 4 -92 27 -135 28 -54 54 -82 108 -114 l35 -21 -73 0
c-54 0 -83 5 -113 21 -23 11 -43 18 -46 15 -3 -2 -5 -31 -6 -64 -1 -92 51
-158 154 -198 61 -24 65 -29 29 -44 -35 -15 -106 -8 -149 15 -26 13 -30 13
-35 -1 -9 -22 -7 -187 2 -200 4 -7 43 -19 86 -28 44 -9 81 -18 83 -19 1 -2
-38 -12 -87 -22 l-90 -19 6 -40 c3 -23 23 -109 44 -192 59 -236 162 -441 342
-686 33 -46 75 -98 92 -117 l31 -34 -60 33 c-186 104 -347 291 -465 542 -130
277 -156 627 -79 1062 10 60 19 144 19 185 1 158 59 312 180 474 l67 89 -45
75 c-65 109 -83 176 -76 277 6 70 3 93 -16 150 -12 37 -33 80 -47 97 -23 27
-28 29 -73 23 -107 -14 -208 81 -234 221 l-8 40 29 -26 c37 -35 82 -57 129
-65 37 -5 41 -3 69 35 84 115 222 146 360 82z m2037 -63 c33 -20 97 -51 141
-68 75 -29 377 -108 672 -175 130 -30 175 -48 175 -70 0 -20 -40 -45 -71 -45
-14 0 -141 29 -280 64 -466 118 -559 147 -700 215 l-76 38 -74 -44 c-87 -51
-323 -130 -503 -169 -67 -14 -184 -42 -261 -61 -200 -52 -295 -56 -295 -14 0
10 6 23 13 29 19 16 177 58 362 97 379 78 585 152 713 255 l57 46 33 -31 c18
-16 60 -47 94 -67z m2052 76 c40 -21 94 -71 112 -106 8 -16 21 -28 29 -28 29
0 111 33 143 57 l32 24 0 -28 c0 -34 -30 -101 -65 -147 -35 -46 -81 -66 -153
-66 -56 0 -62 -2 -88 -32 -56 -67 -79 -160 -63 -253 10 -57 9 -71 -10 -128
-12 -35 -44 -96 -72 -136 l-51 -72 60 -89 c33 -49 75 -119 92 -155 63 -132 72
-169 80 -340 5 -88 15 -200 24 -250 53 -293 18 -570 -105 -825 -121 -250 -316
-444 -508 -504 -132 -41 -143 -41 -78 -2 246 151 417 377 520 686 19 58 37
119 40 136 5 28 4 31 -14 27 -23 -6 -157 16 -164 27 -3 4 21 10 52 14 98 11
141 26 147 49 8 29 8 181 0 201 -5 13 -10 12 -35 -6 -33 -24 -144 -37 -174
-21 -13 8 -8 13 32 28 137 52 183 111 183 237 l0 57 -42 -24 c-50 -27 -115
-39 -158 -30 l-31 7 40 20 c115 57 157 221 99 384 -40 113 -125 233 -273 384
-81 83 -156 171 -194 228 l-62 93 80 -69 c108 -93 255 -193 288 -195 42 -3 75
53 71 121 -2 43 0 51 12 46 42 -18 57 -15 83 16 37 44 44 82 52 285 4 98 11
187 15 196 15 26 74 50 109 43 38 -8 39 2 5 39 -64 69 -158 62 -281 -20 -31
-20 -133 -112 -228 -205 -95 -92 -179 -168 -186 -168 -27 0 -230 70 -289 100
-68 34 -126 83 -153 128 l-17 30 52 -29 c62 -34 248 -96 318 -105 l48 -6 91
83 c111 102 271 231 328 264 89 53 187 64 257 29z m-1932 -389 c40 -13 72 -27
71 -32 -5 -31 -174 -40 -265 -13 -53 15 -47 27 17 32 30 3 58 7 61 11 3 3 -11
27 -32 53 l-39 47 57 -37 c31 -21 89 -48 130 -61z m-356 41 c-39 -48 -35 -56
26 -56 46 0 29 -23 -28 -37 -65 -15 -112 -15 -175 -2 l-53 11 82 33 c44 17
103 46 129 63 26 18 50 32 52 32 2 0 -13 -20 -33 -44z m-383 -167 c134 -19
101 -31 -136 -49 -111 -8 -153 -16 -223 -41 -47 -17 -99 -43 -115 -56 -25 -22
-29 -30 -24 -57 10 -48 79 -186 121 -241 l38 -49 -32 23 c-41 29 -121 142
-153 215 -17 40 -28 54 -39 50 -45 -17 -111 -26 -143 -20 -66 12 -111 101 -92
185 l6 30 43 -45 c27 -28 51 -44 66 -44 13 0 72 22 130 50 58 27 130 54 160
59 64 12 279 6 393 -10z m1337 10 c40 -6 105 -29 169 -60 57 -27 113 -49 123
-49 21 0 91 63 100 90 11 31 23 -4 26 -76 4 -73 4 -74 -31 -109 -31 -31 -41
-35 -89 -35 -30 0 -81 9 -113 20 -32 11 -59 20 -60 20 -1 0 -5 -19 -8 -42 -11
-79 -123 -268 -160 -268 -6 0 -1 10 10 23 56 60 123 211 123 276 0 45 -15 61
-90 95 -71 32 -182 54 -312 62 -150 10 -161 18 -48 38 149 25 266 30 360 15z
m-957 -100 c-41 -70 -152 -129 -244 -129 -53 0 -134 33 -124 50 4 6 30 10 58
10 66 0 181 32 255 70 72 37 77 37 55 -1z m363 -37 c39 -12 104 -26 144 -32
41 -6 75 -12 77 -14 2 -2 -13 -14 -34 -27 -81 -51 -229 -14 -313 77 -22 24
-40 48 -40 54 0 6 21 0 48 -13 26 -13 79 -34 118 -45z m-292 -229 c9 -40 16
-84 16 -100 0 -26 -2 -24 -34 23 -37 54 -51 64 -94 64 -26 1 -25 2 10 20 20
11 45 33 54 50 10 16 21 26 25 22 4 -4 14 -39 23 -79z m155 -24 c-19 -9 -51
-35 -71 -59 -42 -48 -42 -44 -2 81 l25 76 42 -41 42 -41 -36 -16z m-588 30
c89 -27 159 -126 159 -225 0 -55 -44 -208 -100 -349 -26 -66 -56 -146 -66
-178 -14 -45 -20 -54 -27 -41 -14 25 -2 100 48 297 48 192 53 230 31 281 -26
61 -57 76 -162 76 -105 0 -167 21 -204 68 -23 29 -26 60 -7 68 63 24 251 26
328 3z m1248 2 c29 -16 21 -45 -24 -88 -35 -34 -53 -38 -178 -49 -68 -5 -83
-10 -113 -36 -60 -52 -61 -77 -16 -293 48 -227 54 -269 44 -315 -7 -32 -15
-13 -86 204 -42 131 -81 261 -86 290 -22 136 42 242 177 292 46 17 247 14 282
-5z m680 -26 c26 -30 31 -44 31 -85 0 -57 -15 -74 -24 -27 -4 17 -17 58 -30
90 -13 31 -20 57 -16 57 4 0 22 -16 39 -35z m-2945 -47 c-34 -95 -44 -104 -44
-41 0 41 5 58 26 82 41 49 46 37 18 -41z m452 -46 c62 -62 75 -78 54 -72 -68
20 -139 80 -175 150 l-16 31 28 -15 c15 -8 64 -50 109 -94z m2174 101 c0 -21
-81 -111 -120 -134 -38 -23 -105 -51 -90 -37 3 2 47 43 98 91 85 80 112 99
112 80z m-2317 -216 c77 -75 123 -101 235 -137 40 -12 71 -25 68 -27 -2 -2
-41 3 -86 11 -45 9 -87 16 -92 16 -6 0 -8 -21 -6 -50 1 -28 1 -50 -3 -50 -11
0 -105 64 -151 102 -83 69 -133 208 -114 314 l8 37 35 -73 c26 -54 55 -92 106
-143z m2445 96 c-4 -70 -10 -99 -31 -139 -29 -57 -104 -129 -178 -169 l-48
-26 6 51 c4 39 3 50 -8 50 -25 -1 -180 -30 -192 -36 -8 -5 -9 -3 -2 4 6 6 44
22 86 35 113 37 172 71 235 133 52 52 114 157 114 194 0 10 3 11 11 3 8 -8 10
-42 7 -100z m292 -137 c-30 -49 -70 -75 -127 -82 l-48 -6 42 25 c23 14 66 43
95 65 29 23 54 39 56 37 3 -2 -6 -20 -18 -39z m-3050 -55 c33 -20 33 -21 10
-21 -35 0 -86 34 -105 69 -23 46 -18 48 23 9 20 -20 53 -45 72 -57z m-305
-306 c0 -55 -4 -156 -8 -225 -7 -100 -6 -140 7 -198 21 -102 68 -192 131 -251
63 -59 121 -90 240 -126 143 -44 186 -70 273 -166 l45 -50 -93 57 c-120 73
-138 80 -251 99 -120 20 -203 60 -278 134 -67 65 -99 113 -131 196 -29 75 -31
213 -5 390 17 120 22 274 11 337 -4 26 1 19 27 -32 30 -60 32 -72 32 -165z
m892 197 c6 -4 16 -20 22 -35 13 -34 38 -35 53 -2 6 14 18 25 25 25 24 0 11
-51 -19 -73 -23 -17 -31 -18 -56 -8 -30 13 -52 47 -52 81 0 21 8 24 27 12z
m2726 -74 c-3 -47 2 -173 12 -287 18 -225 15 -275 -22 -371 -70 -178 -208
-286 -420 -328 -101 -20 -158 -47 -313 -149 -14 -9 6 16 44 55 78 80 141 117
282 167 114 40 175 78 242 149 58 61 96 131 118 219 14 52 15 95 9 262 -7 202
-2 255 30 331 8 19 16 34 19 34 3 0 2 -37 -1 -82z m-943 45 c0 -35 -36 -73
-70 -73 -46 0 -109 67 -80 85 14 9 38 -6 43 -26 8 -31 44 -24 52 11 5 23 12
30 31 30 19 0 24 -5 24 -27z m731 -162 c1 -88 -2 -98 -35 -166 -38 -77 -74
-112 -148 -144 -54 -23 -157 -41 -234 -41 l-59 0 51 28 c86 48 206 135 260
188 65 65 109 153 126 251 l12 76 13 -49 c7 -27 14 -91 14 -143z m-3137 -25
c13 -22 42 -62 65 -87 43 -50 259 -206 298 -215 13 -4 23 -11 23 -16 0 -13
-115 -4 -213 17 -135 28 -220 99 -253 210 -16 57 -21 194 -9 258 l7 38 29 -82
c15 -44 39 -100 53 -123z m821 156 c-3 -3 -18 7 -33 23 l-27 28 33 -23 c18
-12 31 -25 27 -28z m1395 24 c0 -2 -7 -7 -16 -10 -8 -3 -12 -2 -9 4 6 10 25
14 25 6z m606 -168 c-9 -58 -44 -114 -105 -172 -74 -68 -147 -99 -246 -103
l-80 -3 70 23 c156 52 279 144 327 247 28 61 43 64 34 8z m-2480 -127 c51 -45
192 -120 228 -122 12 0 37 -7 56 -14 35 -13 34 -13 -37 -14 -158 -2 -309 99
-358 240 -25 70 -17 75 23 13 21 -33 61 -79 88 -103z m921 -245 c15 -21 37
-68 49 -105 19 -54 27 -66 46 -69 68 -8 90 -15 131 -47 l44 -34 24 25 c35 37
57 47 123 53 l60 6 12 66 c7 37 19 80 28 97 14 28 137 144 144 137 2 -2 -14
-44 -37 -93 -48 -104 -53 -161 -20 -232 43 -92 46 -85 -40 -85 -82 0 -118 -14
-209 -80 -83 -59 -101 -57 -217 24 -67 47 -135 66 -185 51 -19 -5 -38 -10 -42
-10 -4 0 5 28 19 63 34 84 29 153 -21 265 -20 46 -36 88 -36 95 0 15 93 -77
127 -127z m1029 -68 c61 -91 129 -247 154 -348 44 -187 26 -213 -239 -350
-133 -69 -197 -117 -179 -136 7 -6 206 64 260 92 69 35 118 76 149 124 18 27
36 50 40 50 13 0 -9 -72 -38 -118 -38 -62 -97 -99 -270 -172 -81 -34 -154 -68
-162 -75 -43 -41 73 -48 186 -10 102 35 174 83 218 147 l37 53 -7 -40 c-11
-67 -61 -148 -119 -193 -43 -33 -59 -29 -54 13 4 36 -5 47 -16 19 -3 -9 -6
-31 -6 -49 0 -66 -13 -82 -77 -95 -140 -30 -235 17 -302 149 -33 64 -26 89 39
132 70 47 87 66 149 168 64 105 68 130 41 210 -20 56 -21 75 -15 165 7 114 4
127 -56 228 -28 46 -39 73 -34 87 6 20 25 30 25 14 0 -5 28 -39 61 -78 104
-119 127 -193 95 -313 -13 -46 -13 -60 0 -103 8 -27 18 -49 23 -49 5 0 26 14
47 31 49 39 87 59 113 59 11 0 23 5 26 10 12 19 -36 153 -111 312 -102 217
-104 223 -59 173 20 -22 56 -70 81 -107z m-1494 -64 c-129 -270 -135 -299 -69
-327 23 -9 66 -35 96 -58 59 -45 59 -45 88 30 14 38 15 53 5 112 -18 102 -15
127 18 198 29 61 117 181 133 181 17 0 5 -60 -22 -103 -48 -74 -56 -116 -41
-196 16 -84 9 -139 -24 -212 -14 -29 -26 -69 -26 -88 0 -63 106 -214 200 -285
31 -23 56 -51 58 -63 7 -49 -69 -163 -131 -195 -49 -26 -167 -31 -228 -10 -35
12 -36 14 -42 75 -3 34 -4 63 -2 65 2 2 27 -4 56 -12 69 -21 175 -21 182 -1 7
18 10 16 -93 50 -47 15 -123 45 -169 67 -132 63 -220 166 -221 258 l0 35 30
-52 c60 -105 179 -191 328 -238 148 -47 126 -11 -70 110 -179 111 -218 142
-248 198 l-24 45 27 100 c34 130 99 294 140 354 33 48 130 157 135 152 2 -1
-37 -87 -86 -190z m-272 -167 c33 -35 48 -57 39 -57 -25 0 -87 62 -94 95 -4
16 -5 28 -3 25 2 -3 28 -31 58 -63z m2006 25 c-9 -28 -44 -70 -69 -84 l-21
-11 18 29 c25 38 70 92 74 88 2 -1 1 -11 -2 -22z m-1332 -168 c11 -8 15 -14 9
-14 -7 0 -14 4 -17 9 -3 4 -26 7 -52 6 -36 -1 -51 -7 -66 -26 -48 -60 21 -238
106 -275 28 -12 29 -13 8 -14 -31 0 -70 42 -109 116 -55 106 -55 185 0 210 36
16 90 10 121 -12z m766 17 c0 -4 -11 -7 -24 -7 -14 0 -23 3 -21 6 5 9 45 10
45 1z m60 -79 c0 -55 -41 -150 -89 -204 -23 -27 -50 -42 -99 -58 -37 -12 -80
-32 -97 -45 -52 -40 -75 -62 -69 -67 3 -3 -2 -8 -11 -12 -23 -9 -4 21 42 65
46 44 64 54 143 78 69 22 89 41 132 130 22 46 32 80 32 117 1 28 4 50 9 47 4
-2 7 -25 7 -51z m-2333 -4 c27 -11 27 -11 -24 -19 -74 -10 -140 -45 -174 -92
l-29 -40 0 29 c0 39 32 90 72 114 37 23 111 27 155 8z m3749 -17 c36 -22 69
-72 79 -118 7 -36 -9 -47 -20 -13 -10 31 -54 79 -88 97 -17 9 -54 19 -82 23
-47 6 -48 7 -25 18 39 17 102 14 136 -7z m-596 -431 c-35 -165 -174 -337 -311
-386 -23 -8 -44 -13 -45 -11 -2 2 19 20 47 40 114 86 259 318 297 474 l17 72
3 -67 c2 -37 -2 -92 -8 -122z m387 145 c42 -18 66 -38 94 -76 18 -26 17 -25
-59 12 -43 21 -108 43 -147 50 -56 10 -65 14 -45 20 44 12 119 10 157 -6z
m-2603 -50 c20 -31 61 -75 91 -98 47 -36 55 -47 55 -74 0 -37 -6 -40 -40 -16
-77 50 -131 129 -143 206 -3 20 -4 37 -3 37 2 0 20 -25 40 -55z m-809 11 c19
-8 35 -17 35 -19 0 -2 -25 -2 -55 1 -75 6 -137 -13 -189 -60 -25 -21 -47 -35
-50 -30 -10 17 29 74 68 97 48 29 135 34 191 11z m433 -219 c43 -95 97 -174
170 -249 36 -38 62 -68 58 -68 -5 0 -35 14 -68 32 -72 38 -127 99 -170 186
-27 54 -32 77 -35 150 -2 71 -1 80 7 50 5 -21 23 -66 38 -101z m1369 91 c-3
-8 -6 -5 -6 6 -1 11 2 17 5 13 3 -3 4 -12 1 -19z m1848 -263 c-13 -47 -36
-113 -53 -147 -30 -65 -119 -208 -107 -173 4 11 13 58 21 104 17 95 29 123 89
201 23 30 47 65 54 78 21 40 20 24 -4 -63z m-4165 -360 c23 -105 109 -367 178
-545 54 -135 26 -103 -67 80 -133 262 -177 420 -168 605 8 158 20 184 28 60 4
-55 17 -145 29 -200z m2160 260 c65 -14 78 -14 133 1 76 19 130 14 239 -26
103 -38 161 -72 190 -113 l23 -32 -25 17 c-50 34 -108 65 -186 98 -67 29 -91
34 -154 33 -96 0 -203 0 -310 1 -80 0 -91 -2 -182 -44 -54 -24 -120 -61 -148
-82 l-51 -38 16 30 c21 41 82 83 168 116 148 57 180 62 287 39z m1539 -102
c-25 -75 -60 -118 -117 -147 -53 -27 -153 -59 -160 -51 -3 3 0 5 6 5 18 0 205
153 247 203 22 26 41 46 42 47 1 0 -7 -25 -18 -57z m-1210 -145 c36 -13 73
-38 104 -68 57 -57 61 -89 18 -143 l-28 -36 -11 37 c-22 73 -118 135 -209 136
l-54 1 6 44 c10 70 10 69 67 59 28 -5 76 -19 107 -30z m-367 18 c4 -6 8 -28 8
-48 0 -33 -3 -38 -23 -38 -79 0 -191 -67 -217 -129 -7 -17 -16 -28 -21 -25
-18 11 -50 86 -44 104 9 28 82 90 131 112 70 30 154 43 166 24z m-768 -305
l31 -33 -30 15 c-42 21 -91 75 -109 119 -27 64 -18 63 30 -3 26 -35 61 -79 78
-98z m-732 91 c78 -35 130 -73 159 -113 19 -27 18 -27 -48 11 -38 21 -85 42
-106 46 -38 6 -38 6 -31 -22 4 -16 17 -58 30 -94 l24 -65 -34 38 c-48 54 -101
164 -87 181 8 10 8 22 1 40 -14 38 -13 41 8 24 9 -8 47 -29 84 -46z m2487 -47
c1 -72 -16 -110 -85 -182 -36 -37 -63 -63 -60 -56 4 6 18 51 32 100 30 104 94
224 106 196 3 -10 7 -36 7 -58z m-3383 -29 c27 -22 68 -63 89 -91 37 -48 9
-24 -155 133 -28 27 11 2 66 -42z m3992 -30 c99 -52 184 -218 185 -363 1 -107
-43 -191 -166 -315 -161 -165 -327 -285 -483 -352 -106 -46 -140 -53 -79 -19
91 52 139 85 240 164 300 234 452 449 431 608 -9 67 -61 166 -103 198 -29 23
-47 28 -88 27 -74 0 -125 -36 -296 -212 -95 -97 -197 -188 -298 -267 -84 -65
-194 -155 -245 -198 -139 -122 -144 -126 -125 -102 84 108 190 223 291 317 67
62 192 178 277 258 181 168 229 209 291 244 52 30 125 35 168 12z m-2480 -143
c69 -49 137 -133 184 -228 l30 -60 -56 62 c-31 34 -78 75 -105 91 -66 41 -116
93 -146 152 -14 27 -25 52 -25 56 0 7 31 -12 118 -73z m-1635 -15 c-7 -68 19
-216 58 -333 37 -111 137 -318 214 -445 137 -224 172 -300 215 -462 16 -61 26
-107 21 -102 -11 12 -120 159 -213 287 -264 362 -374 628 -353 852 7 83 49
255 61 255 2 0 0 -24 -3 -52z m2603 -133 c18 -91 45 -161 86 -222 34 -50 55
-59 100 -40 49 21 87 67 114 138 l25 64 -5 -66 c-7 -91 -30 -141 -87 -193 -84
-76 -146 -74 -209 5 -21 27 -44 65 -51 84 l-13 35 -31 -62 c-51 -105 -124
-134 -211 -83 -23 13 -56 46 -73 72 -44 66 -55 116 -51 223 l1 45 14 -52 c21
-77 48 -124 95 -167 36 -32 47 -37 73 -32 41 8 92 58 124 120 26 51 72 194 74
230 2 25 1 27 25 -99z m-596 26 c5 -19 8 -37 6 -39 -4 -4 -56 103 -56 115 1
17 40 -44 50 -76z m2515 -92 c193 -296 204 -672 28 -1024 -57 -113 -114 -193
-193 -270 -54 -52 -59 -55 -36 -22 35 53 56 114 132 375 78 271 103 390 111
537 9 176 -35 364 -113 490 l-25 40 26 -30 c15 -16 46 -60 70 -96z m-4091
-273 c44 -69 167 -198 266 -280 41 -34 154 -118 250 -186 198 -141 337 -272
554 -525 71 -82 218 -240 326 -350 243 -247 299 -327 360 -516 17 -50 30 -93
30 -96 0 -2 -28 38 -62 89 -67 100 -261 302 -423 440 -49 42 -190 179 -311
305 -231 238 -377 374 -629 585 -226 188 -307 282 -380 441 -29 63 -66 201
-64 239 0 7 11 -10 23 -38 13 -28 40 -77 60 -108z m1010 27 c19 -21 50 -58 67
-82 l32 -43 -41 21 c-70 36 -149 119 -207 220 -12 21 106 -72 149 -116z m2403
-17 c-63 -58 -147 -108 -215 -126 -24 -6 -51 -14 -60 -17 -43 -15 200 144 258
169 36 15 67 27 70 27 3 0 -21 -24 -53 -53z m-2713 -90 c17 -14 51 -43 76 -65
l45 -41 -55 16 c-77 23 -120 46 -161 91 -67 73 -67 75 1 48 34 -14 76 -36 94
-49z m675 -235 c16 -20 35 -49 43 -66 17 -33 41 -135 34 -142 -3 -3 -34 35
-71 83 -61 83 -103 157 -120 213 -7 22 -3 21 39 -14 26 -21 59 -54 75 -74z
m2460 53 c-29 -102 -101 -204 -200 -280 -72 -55 -230 -150 -454 -274 -396
-218 -609 -339 -660 -373 -40 -27 -20 -7 101 100 189 168 392 309 681 474 254
145 376 232 492 349 25 26 47 46 48 46 1 -1 -2 -20 -8 -42z m-1169 -176 c-30
-56 -91 -125 -164 -184 -44 -35 -81 -62 -83 -60 -5 5 106 183 124 198 19 16
127 75 131 72 2 -1 -2 -13 -8 -26z m-3141 -100 c11 -43 50 -140 85 -215 78
-170 317 -651 413 -833 39 -74 126 -250 194 -390 67 -140 133 -273 146 -295
49 -82 -210 197 -283 305 -194 287 -442 806 -524 1098 -36 127 -58 247 -65
362 -6 95 1 88 34 -32z m2244 -37 c23 -42 32 -70 52 -156 15 -67 -123 168
-146 248 l-9 31 39 -38 c21 -21 50 -59 64 -85z m2677 -92 c53 -81 73 -153 73
-259 0 -125 -35 -229 -178 -530 -217 -458 -327 -631 -499 -783 l-65 -57 37 78
c20 43 89 179 154 302 218 421 367 749 403 891 19 72 22 206 5 271 -14 56 -80
239 -94 258 -5 8 23 -16 63 -55 39 -38 85 -91 101 -116z m-3264 46 c72 -64
108 -101 99 -103 -30 -7 -120 33 -155 68 -34 34 -90 145 -69 138 5 -2 62 -48
125 -103z m2313 -472 c-98 -143 -249 -299 -429 -444 -142 -113 -230 -169 -443
-281 -335 -177 -550 -316 -827 -537 -44 -35 -43 -34 17 35 197 224 439 412
808 624 249 144 475 299 729 501 66 54 132 109 145 123 36 38 36 32 0 -21z
m686 -72 l40 -19 -40 -1 c-50 -1 -167 -56 -220 -102 -21 -19 -62 -70 -91 -114
-54 -81 -109 -140 -199 -211 l-49 -39 36 47 c19 26 61 97 93 159 126 240 289
346 430 280z m-3932 -113 c41 -51 100 -129 132 -173 31 -44 73 -97 93 -119
l37 -38 -31 15 c-73 37 -141 116 -234 272 -29 50 -60 100 -68 113 -31 47 -1
18 71 -70z m-643 -1758 l0 -59 -82 -3 -83 -3 -3 -277 -2 -278 -55 0 -55 0 0
275 0 275 -85 1 c-47 1 -91 2 -97 3 -9 1 -14 23 -16 64 l-3 62 241 0 240 0 0
-60z m652 0 l3 -60 -65 0 c-36 0 -82 -3 -102 -6 l-38 -7 0 -279 c0 -251 -2
-280 -16 -274 -9 3 -33 6 -55 6 l-39 0 -2 278 -3 277 -92 -4 -93 -3 0 59 c0
33 3 63 7 66 3 4 115 7 249 7 l242 0 4 -60z m448 34 c17 -15 44 -45 59 -68
l29 -42 -62 6 c-33 4 -84 4 -113 2 l-51 -4 -4 -52 c-6 -104 -22 -96 183 -96
l180 0 -3 134 -3 135 29 5 c16 3 42 6 58 6 l30 0 -3 -340 -4 -340 -52 0 -53 0
0 150 0 150 -179 0 c-154 0 -180 -2 -185 -16 -3 -9 -6 -76 -6 -150 l0 -134
-55 0 -54 0 1 340 1 340 113 0 c107 0 114 -1 144 -26z m800 -314 l0 -340 -60
0 -60 0 0 340 0 340 60 0 60 0 0 -340z m900 280 l0 -60 -160 0 c-140 0 -166
-3 -199 -20 -71 -36 -111 -107 -111 -197 0 -65 16 -107 61 -158 50 -57 79 -65
233 -65 l134 0 36 -61 36 -61 -192 4 c-186 3 -195 4 -244 30 -70 37 -146 122
-167 188 -26 79 -23 193 7 256 43 92 136 175 219 194 18 5 103 8 190 9 l157 1
0 -60z m742 18 c-54 -78 -54 -78 -212 -85 -133 -6 -144 -8 -173 -32 -16 -14
-37 -38 -47 -53 l-16 -27 -31 27 c-27 24 -30 30 -22 58 5 17 27 50 49 73 67
69 105 78 323 80 l158 1 -29 -42z m848 -22 l0 -65 -144 -3 c-144 -3 -144 -3
-183 -34 -61 -48 -85 -105 -81 -191 3 -61 8 -78 34 -115 52 -75 82 -88 195
-88 l99 0 0 95 0 95 39 0 40 0 3 -126 3 -126 -33 -29 c-32 -28 -35 -29 -146
-29 -128 0 -162 9 -226 57 -124 92 -173 278 -111 418 24 55 92 129 148 161 53
32 109 41 251 43 l112 1 0 -64z m465 -88 c-1 -84 -3 -237 -3 -340 l-2 -188
-55 0 -55 0 0 340 0 340 59 0 59 0 -3 -152z m-1778 -195 c0 -71 26 -127 83
-176 49 -42 72 -47 206 -47 l104 0 0 65 0 65 -80 0 -80 0 0 54 0 53 61 7 c34
3 95 6 135 6 l74 0 0 -181 0 -181 -197 4 c-198 3 -198 3 -251 32 -29 17 -67
46 -84 65 -49 56 -92 157 -96 229 l-4 62 65 0 65 0 -1 -57z m-251 11 c19 -19
34 -40 34 -45 0 -5 -57 -9 -130 -9 l-130 0 0 39 c0 45 4 47 124 50 67 1 70 0
102 -35z m-1516 -726 c35 -73 69 -145 77 -160 12 -26 12 -28 -6 -28 -12 0 -28
14 -42 39 -20 37 -23 38 -53 30 -17 -5 -53 -9 -80 -7 -44 2 -50 0 -64 -28 -16
-31 -30 -44 -50 -44 -10 0 -9 7 2 33 34 81 140 297 146 297 3 0 35 -60 70
-132z m1597 35 c-4 -54 -7 -128 -7 -165 0 -57 -2 -66 -17 -64 -15 2 -19 17
-23 97 l-5 94 -49 -58 c-28 -31 -54 -57 -60 -57 -6 0 -39 28 -73 62 l-63 62
-2 -79 c-1 -44 -2 -89 -2 -100 0 -13 -7 -21 -18 -21 -15 0 -18 10 -18 61 0 33
-3 104 -7 158 -4 70 -3 97 5 97 7 0 47 -36 90 -81 l78 -81 80 85 c43 47 83 86
88 86 5 1 6 -40 3 -96z m531 19 l3 -72 108 0 c124 0 124 0 115 93 -4 42 -2 47
15 47 18 0 20 -8 23 -67 6 -129 -2 -243 -17 -243 -18 0 -23 17 -18 73 l5 47
-116 0 -116 0 0 -60 c0 -53 -2 -60 -20 -60 -19 0 -20 7 -20 161 0 147 1 160
18 157 14 -3 18 -16 20 -76z m-2918 43 l0 -25 -105 0 -105 0 0 -45 0 -45 86 0
c83 0 85 -1 82 -22 -3 -22 -6 -23 -85 -20 l-83 4 0 -69 c0 -65 -2 -70 -21 -68
-20 1 -21 8 -26 158 l-5 157 131 0 131 0 0 -25z m170 -45 l0 -70 110 0 110 0
0 70 c0 63 2 70 20 70 19 0 20 -7 20 -155 0 -148 -1 -155 -20 -155 -18 0 -20
7 -20 63 l0 62 -92 -2 c-51 -1 -99 -3 -105 -3 -9 0 -13 -19 -13 -60 0 -56 -2
-60 -22 -60 -23 0 -23 1 -23 155 0 141 2 155 18 155 14 0 17 -10 17 -70z m844
-33 c8 -118 0 -207 -19 -207 -17 0 -25 56 -25 193 0 108 2 117 19 117 16 0 19
-12 25 -103z m220 31 l66 -72 73 72 c40 40 76 72 80 72 4 0 7 -70 7 -155 0
-148 -1 -155 -20 -155 -19 0 -20 7 -20 95 0 52 -4 95 -8 95 -5 0 -30 -25 -56
-55 -26 -30 -53 -55 -59 -55 -7 1 -32 27 -57 60 -25 33 -48 59 -52 60 -5 0 -8
-28 -8 -62 0 -87 -10 -138 -26 -138 -11 0 -14 30 -14 155 0 127 3 155 14 155
8 0 44 -32 80 -72z m426 -87 c0 -154 -1 -159 -20 -154 -19 5 -20 14 -20 159 0
147 1 154 20 154 19 0 20 -7 20 -159z m198 9 c-3 -83 -8 -153 -11 -156 -3 -4
-12 -4 -19 -2 -10 4 -12 40 -10 157 3 145 4 151 24 151 20 0 21 -3 16 -150z
m902 125 c0 -25 -1 -25 -85 -25 l-85 0 0 -50 0 -50 65 0 c58 0 65 -2 65 -20 0
-18 -7 -20 -65 -20 l-65 0 0 -60 c0 -53 -2 -60 -20 -60 -19 0 -20 7 -20 139 0
77 -3 146 -6 155 -5 14 8 16 105 16 l111 0 0 -25z m670 -130 c0 -148 -1 -155
-20 -155 -19 0 -20 7 -20 155 0 148 1 155 20 155 19 0 20 -7 20 -155z m400
135 c0 -16 -7 -20 -32 -20 -80 0 -78 2 -78 -141 0 -122 -1 -129 -20 -129 -19
0 -20 7 -20 129 0 143 1 141 -71 141 -42 0 -42 0 -33 24 5 13 26 16 130 16
117 0 124 -1 124 -20z m170 -135 c0 -148 -1 -155 -20 -155 -19 0 -20 7 -20
155 0 148 1 155 20 155 19 0 20 -7 20 -155z"/>
<path d="M6926 7073 c-10 -14 -55 -49 -100 -78 -76 -49 -146 -114 -146 -135 0
-18 28 -10 118 35 101 51 162 108 162 153 0 44 -13 53 -34 25z"/>
<path d="M5186 7084 c-16 -42 -6 -75 37 -118 44 -44 151 -112 220 -141 35 -15
37 -14 37 4 0 30 -43 75 -129 135 -43 31 -94 73 -114 96 -42 45 -43 46 -51 24z"/>
<path d="M4698 990 l-27 -60 60 0 c34 0 59 3 57 8 -2 4 -14 31 -27 60 -13 28
-26 52 -30 52 -3 -1 -18 -28 -33 -60z"/>
</g>
</svg>
